<?xml version="1.0" encoding="UTF-8" standalone="no"?>
<!-- Created with Inkscape (http://www.inkscape.org/) -->
<svg
   xmlns:dc="http://purl.org/dc/elements/1.1/"
   xmlns:cc="http://creativecommons.org/ns#"
   xmlns:rdf="http://www.w3.org/1999/02/22-rdf-syntax-ns#"
   xmlns:svg="http://www.w3.org/2000/svg"
   xmlns="http://www.w3.org/2000/svg"
   xmlns:sodipodi="http://sodipodi.sourceforge.net/DTD/sodipodi-0.dtd"
   xmlns:inkscape="http://www.inkscape.org/namespaces/inkscape"
   width="110.001"
   height="110.003"
   id="svg2501"
   sodipodi:version="0.32"
   inkscape:version="0.46"
   version="1.0"
   sodipodi:docname="gear 3.svg"
   inkscape:output_extension="org.inkscape.output.svg.inkscape">
  <defs
     id="defs2503">
    <inkscape:perspective
       sodipodi:type="inkscape:persp3d"
       inkscape:vp_x="0 : 526.18109 : 1"
       inkscape:vp_y="0 : 1000 : 0"
       inkscape:vp_z="744.09448 : 526.18109 : 1"
       inkscape:persp3d-origin="372.04724 : 350.78739 : 1"
       id="perspective2509" />
  </defs>
  <sodipodi:namedview
     id="base"
     pagecolor="#ffffff"
     bordercolor="#666666"
     borderopacity="1.0"
     gridtolerance="10000"
     guidetolerance="10"
     objecttolerance="10"
     inkscape:pageopacity="0.0"
     inkscape:pageshadow="2"
     inkscape:zoom="0.35"
     inkscape:cx="375"
     inkscape:cy="520"
     inkscape:document-units="px"
     inkscape:current-layer="layer1"
     showgrid="false"
     inkscape:window-width="672"
     inkscape:window-height="718"
     inkscape:window-x="600"
     inkscape:window-y="249" />
  <metadata
     id="metadata2506">
    <rdf:RDF>
      <cc:Work
         rdf:about="">
        <dc:format>image/svg+xml</dc:format>
        <dc:type
           rdf:resource="http://purl.org/dc/dcmitype/StillImage" />
        <cc:license
           rdf:resource="http://creativecommons.org/licenses/by-sa/3.0/" />
        <dc:creator>
          <cc:Agent>
            <dc:title>eugrafia</dc:title>
          </cc:Agent>
        </dc:creator>
      </cc:Work>
      <cc:License
         rdf:about="http://creativecommons.org/licenses/by-sa/3.0/">
        <cc:permits
           rdf:resource="http://creativecommons.org/ns#Reproduction" />
        <cc:permits
           rdf:resource="http://creativecommons.org/ns#Distribution" />
        <cc:requires
           rdf:resource="http://creativecommons.org/ns#Notice" />
        <cc:requires
           rdf:resource="http://creativecommons.org/ns#Attribution" />
        <cc:permits
           rdf:resource="http://creativecommons.org/ns#DerivativeWorks" />
        <cc:requires
           rdf:resource="http://creativecommons.org/ns#ShareAlike" />
      </cc:License>
    </rdf:RDF>
  </metadata>
  <g
     inkscape:label="Layer 1"
     inkscape:groupmode="layer"
     id="layer1"
     transform="translate(-90.71378,-123.07497)">
    <g
       id="g11"
       transform="translate(-331.78622,98.676973)">
      <path
         d="M 477.502,50.642 C 461.474,50.642 448.433,63.543 448.433,79.4 C 448.433,95.257 461.474,108.158 477.502,108.158 C 493.53,108.158 506.57,95.257 506.57,79.4 C 506.57,63.543 493.53,50.642 477.502,50.642 z M 523.424,79.399 C 523.424,77.938 523.347,76.495 523.211,75.069 L 532.501,71.351 C 532.08,68.504 531.441,65.727 530.596,63.04 L 520.599,63.678 C 519.578,60.942 518.3,58.328 516.794,55.868 L 523.524,48.539 C 521.907,46.18 520.106,43.955 518.147,41.879 L 509.415,46.747 C 507.318,44.74 505.03,42.93 502.579,41.346 L 505.433,31.837 C 502.962,30.413 500.37,29.173 497.676,28.133 L 491.94,36.272 C 489.202,35.375 486.348,34.727 483.407,34.353 L 481.808,24.561 C 480.386,24.453 478.951,24.398 477.501,24.398 C 476.051,24.398 474.614,24.453 473.192,24.561 L 471.594,34.353 C 468.652,34.727 465.8,35.375 463.06,36.272 L 457.326,28.133 C 454.63,29.173 452.04,30.413 449.568,31.837 L 452.424,41.346 C 449.971,42.93 447.683,44.741 445.586,46.747 L 436.855,41.879 C 434.896,43.955 433.095,46.18 431.477,48.539 L 438.209,55.868 C 436.701,58.328 435.424,60.942 434.403,63.678 L 424.405,63.04 C 423.561,65.727 422.921,68.504 422.5,71.351 L 431.791,75.069 C 431.654,76.495 431.577,77.938 431.577,79.399 C 431.577,80.86 431.654,82.303 431.791,83.729 L 422.5,87.447 C 422.921,90.294 423.562,93.071 424.405,95.758 L 434.403,95.12 C 435.424,97.856 436.701,100.47 438.209,102.929 L 431.477,110.259 C 433.095,112.618 434.896,114.843 436.855,116.919 L 445.586,112.051 C 447.683,114.058 449.971,115.866 452.424,117.452 L 449.568,126.961 C 452.04,128.385 454.631,129.625 457.326,130.664 L 463.06,122.527 C 465.8,123.424 468.652,124.072 471.594,124.446 L 473.192,134.238 C 474.614,134.345 476.05,134.401 477.501,134.401 C 478.95,134.401 480.386,134.345 481.808,134.238 L 483.407,124.446 C 486.348,124.072 489.202,123.424 491.94,122.527 L 497.675,130.664 C 500.37,129.625 502.961,128.386 505.433,126.961 L 502.579,117.452 C 505.03,115.866 507.318,114.057 509.415,112.051 L 518.147,116.919 C 520.106,114.843 521.907,112.618 523.524,110.259 L 516.792,102.929 C 518.3,100.47 519.578,97.856 520.599,95.12 L 530.596,95.758 C 531.442,93.071 532.08,90.294 532.501,87.447 L 523.211,83.729 C 523.347,82.303 523.424,80.86 523.424,79.399 z M 477.502,112.796 C 458.888,112.796 443.743,97.815 443.743,79.4 C 443.743,60.985 458.888,46.004 477.502,46.004 C 496.116,46.004 511.26,60.985 511.26,79.4 C 511.26,97.815 496.116,112.796 477.502,112.796 z"
         id="path13" />
    </g>
  </g>
</svg>
